# xmcd CD database file
#
# Track frame offsets:
#	150
#	12263
#	26457
#	36739
#	49030
#	61752
#	72848
#	84616
#	95363
#	106317
#	119902
#	130243
#	142647
#	151722
#	164051
#	178794
#	189307
#	202461
#	216230
#	229290
#
# Disc length: 3200 seconds
#
# Revision: 0
# Processed by: cddbd v1.5.2PL0 Copyright (c) Steve Scherf et al.
# Submitted via: CDex 1.79
#
DISCID=220c7e14
DTITLE=Dean Martin - Greatest Hits [CD 1)
DYEAR=2013
DGENRE=Jazz
TTITLE0=I Can't Give You Anything But Love
TTITLE1=That's Amore
TTITLE2=Memories Are Made Of This
TTITLE3=Sway
TTITLE4=Standing On The Corner
TTITLE5=It Won't Cool Of
TTITLE6=I'd Cry Like A Baby
TTITLE7=Baby, It's Cold Outside
TTITLE8=Innamorata
TTITLE9=Volare
TTITLE10=It Looks Like Love
TTITLE11=All I Do Is Dream Of You
TTITLE12=Let's Be Friendly
TTITLE13=I've Got My Love To Keep Me Warm
TTITLE14=Dream A Little Dream Of Me
TTITLE15=Mambo Italiano
TTITLE16=The Naughty Lady Of Shady Lane
TTITLE17=When You're Smiling (The Whole World Smiles With You)
TTITLE18=Once In A While
TTITLE19=On An Evening In Roma
EXTD=YEAR: 2013
EXTT0=
EXTT1=
EXTT2=
EXTT3=
EXTT4=
EXTT5=
EXTT6=
EXTT7=
EXTT8=
EXTT9=
EXTT10=
EXTT11=
EXTT12=
EXTT13=
EXTT14=
EXTT15=
EXTT16=
EXTT17=
EXTT18=
EXTT19=
PLAYORDER=
